<?xml version="1.0" encoding="UTF-8" standalone="no"?>
<!-- Created with Inkscape (http://www.inkscape.org/) -->

<svg
   width="170mm"
   height="170mm"
   viewBox="0 0 170 170"
   version="1.1"
   id="svg1"
   xml:space="preserve"
   inkscape:version="1.4 (86a8ad7, 2024-10-11)"
   sodipodi:docname="drawing.svg"
   xmlns:inkscape="http://www.inkscape.org/namespaces/inkscape"
   xmlns:sodipodi="http://sodipodi.sourceforge.net/DTD/sodipodi-0.dtd"
   xmlns="http://www.w3.org/2000/svg"
   xmlns:svg="http://www.w3.org/2000/svg"><sodipodi:namedview
     id="namedview1"
     pagecolor="#ffffff"
     bordercolor="#000000"
     borderopacity="0.25"
     inkscape:showpageshadow="2"
     inkscape:pageopacity="0.0"
     inkscape:pagecheckerboard="0"
     inkscape:deskcolor="#d1d1d1"
     inkscape:document-units="mm"
     inkscape:zoom="1.4702524"
     inkscape:cx="112.90579"
     inkscape:cy="362.86287"
     inkscape:current-layer="layer1" /><defs
     id="defs1" /><g
     inkscape:label="Layer 1"
     inkscape:groupmode="layer"
     id="layer1"
     transform="translate(-25.942777,-89.710923)"><path
       style="fill:#000000"
       d="m 29.111628,233.11328 c 2.412563,-9.57829 6.644592,-18.5141 12.862283,-27.15837 2.275448,-3.16349 2.999036,-4.8856 3.190837,-7.59412 0.215958,-3.04971 -0.41317,-5.16328 -2.078149,-6.98154 -0.852468,-0.93082 -1.61899,-1.53135 -2.342981,-1.83528 -1.338881,-0.56206 -3.588265,-0.63681 -4.911884,-0.16323 -1.296683,0.46395 -3.220989,2.22154 -3.84874,3.51596 -0.676211,1.39323 -0.477859,2.35566 0.724087,3.5134 1.113291,1.07234 1.063443,1.75737 -0.08595,1.18128 -1.708643,-0.85638 -2.379447,-2.99393 -1.661654,-5.29494 0.348484,-1.11716 0.704085,-1.63407 2.054117,-2.98599 1.437029,-1.43902 1.811784,-1.69217 3.127547,-2.11214 2.120111,-0.67677 3.822079,-0.62825 5.841195,0.16654 1.646866,0.64826 1.841941,0.79805 3.233226,2.48262 1.300775,1.575 1.54136,2.03074 1.980777,3.75233 0.275084,1.07777 0.555293,1.9079 0.622672,1.84473 0.06759,-0.0629 0.336304,-0.77835 0.597606,-1.58931 0.563363,-1.74839 0.629444,-5.20603 0.129209,-6.76015 -0.477487,-1.48343 -1.70662,-2.81116 -2.875939,-3.10666 -1.288987,-0.32573 -1.430098,-0.59382 -0.308652,-0.58641 1.922196,0.0127 3.640414,1.34699 4.765869,3.70091 0.31874,0.66664 0.630511,1.21447 0.692837,1.2174 0.0623,0.003 0.149509,-0.58037 0.193718,-1.29626 0.108648,-1.75889 -0.487071,-3.62715 -1.643931,-5.1556 -0.527831,-0.6974 -0.891628,-1.32993 -0.808408,-1.40566 0.198929,-0.18103 1.802484,1.06774 2.533172,1.97272 0.816804,1.01167 1.335405,2.7486 1.353895,4.53482 0.0159,1.53594 0.0159,1.53594 0.486301,0.0873 1.56402,-4.81663 1.599057,-12.06572 0.08129,-16.82041 -0.930177,-2.91394 -3.220255,-5.76673 -5.470267,-6.81437 -2.174223,-1.01234 -4.930235,-0.39967 -6.26583,1.39291 -0.429946,0.57705 -0.486044,0.58768 -0.509585,0.0965 -0.06933,-1.44655 1.825746,-3.28776 3.755049,-3.64832 2.346276,-0.43846 5.230319,0.48262 6.754116,2.15708 0.285413,0.31363 0.894297,0.65597 1.353065,0.76075 2.680128,0.61211 5.138854,3.41803 6.828604,7.79289 0.562318,1.45585 0.562318,1.45585 0.529303,0.41268 -0.0884,-2.79339 -1.352946,-5.99122 -3.150083,-7.96605 -1.346489,-1.47963 -3.817681,-3.14574 -6.121734,-4.12738 -1.088411,-0.46372 -2.056467,-0.92833 -2.151233,-1.03246 -0.261197,-0.28702 0.990922,-0.88256 2.295699,-1.09186 3.666138,-0.58814 8.259075,3.15536 11.288325,9.20058 0.291015,0.58075 0.313209,0.54481 0.504292,-0.81665 0.40467,-2.88325 1.218914,-6.46846 1.976239,-8.70163 0.874474,-2.57863 2.429882,-6.16327 2.669396,-6.15199 0.0866,0.004 -0.08303,0.96659 -0.376938,2.13892 -0.602386,2.40258 -1.236166,7.33251 -0.978994,7.61511 0.09284,0.10202 0.328366,-0.74479 0.523394,-1.88179 0.195028,-1.13701 0.523547,-2.66781 0.730041,-3.40176 1.240312,-4.40857 5.854305,-14.14846 5.334347,-11.26053 -0.114724,0.63721 -0.10695,0.64002 0.266319,0.0961 0.211452,-0.30816 0.908273,-1.09032 1.548442,-1.73817 1.163939,-1.17793 1.163939,-1.17793 2.252699,0.0185 0.59881,0.65801 2.86647,2.53074 5.03927,4.16163 2.17279,1.6309 4.37059,3.41235 4.88398,3.9588 0.93346,0.99352 0.93346,0.99352 0.48158,-0.4204 -0.24853,-0.77766 -1.12656,-2.70187 -1.95119,-4.276 -1.76219,-3.3639 -2.02414,-4.34327 -1.53578,-5.74216 0.42738,-1.22427 0.90274,-1.33664 0.91874,-0.21718 0.0302,2.11226 0.6214,3.34689 3.3152,6.9233 1.00766,1.33783 1.92482,2.62977 2.03815,2.87096 0.41037,0.87347 0.39989,0.21557 -0.0253,-1.58684 -0.23882,-1.01239 -1.07521,-3.91363 -1.85866,-6.44716 -1.52984,-4.94731 -2.28985,-8.4749 -2.3999,-11.13924 -0.0763,-1.84739 0.22602,-2.28178 0.38908,-0.55903 0.10729,1.13359 0.62999,3.1651 1.28761,5.00437 0.50854,1.42228 0.49212,1.16195 -0.12364,-1.95994 -0.61746,-3.13055 -0.73666,-6.44528 -0.31318,-8.70873 0.2983,-1.59434 1.40039,-4.49437 1.70259,-4.48013 0.0838,0.004 0.10076,1.16238 0.0378,2.57432 -0.24652,5.53233 0.81275,9.24177 5.02715,17.60445 1.10476,2.19219 2.2159,4.47715 2.4692,5.07769 0.25328,0.60054 0.52979,1.09515 0.61444,1.09914 0.33949,0.016 -0.4194,-4.27549 -1.42745,-8.07213 -1.82307,-6.86633 -2.03156,-10.38668 -0.78782,-13.30284 0.56109,-1.31558 2.43058,-3.78719 2.66758,-3.52676 0.0534,0.0587 -0.22178,0.87225 -0.6116,1.80783 -1.16149,2.78763 -0.5243,5.29747 2.7938,11.00446 0.887916,1.52718 1.785246,3.1552 1.994066,3.61782 0.20881,0.46261 0.46291,0.84503 0.56466,0.84983 0.10171,0.005 0.61622,-1.61452 1.14328,-3.59848 1.69672,-6.38692 4.98471,-13.77858 7.44122,-16.72848 0.66277,-0.7959 0.61608,-0.61202 -0.33753,1.32855 -1.61475,3.28609 -2.92609,6.98522 -3.46916,9.78615 -0.7407,3.82022 -0.60806,4.30846 0.43443,1.59919 0.48914,-1.2712 1.30671,-2.90546 1.81681,-3.63168 0.5101,-0.72622 0.9991,-1.46281 1.08668,-1.63683 0.0875,-0.17406 0.23592,-0.23214 0.32963,-0.12917 0.0937,0.103 -0.19847,0.97598 -0.64933,1.93997 -0.90085,1.92608 -2.18413,5.71626 -1.93932,5.72779 0.0849,0.004 0.51076,-0.6474 0.94622,-1.44757 1.63324,-3.00109 4.82581,-5.63752 9.22469,-7.61774 1.72448,-0.7763 2.23724,-0.63176 1.62648,0.45847 -0.71915,1.2837 -4.23607,9.15034 -4.09382,9.15705 0.0771,0.004 0.67266,-0.79988 1.32329,-1.7856 2.65264,-4.01874 5.05388,-7.13481 7.93353,-10.29521 1.29143,-1.41733 5.02477,-4.29009 7.99533,-6.15232 2.91595,-1.82799 9.64062,-5.13548 9.88427,-4.86152 0.0291,0.0327 -1.23825,1.24933 -2.81639,2.70353 -3.1895,2.93901 -4.17868,4.22893 -6.38684,8.32842 -1.41629,2.62938 -1.56883,3.27174 -0.37684,1.58684 1.163,-1.64393 3.32046,-3.91946 3.38559,-3.57091 0.0321,0.17166 -0.25787,0.78868 -0.64434,1.37115 -1.25966,1.89855 -3.13268,5.8418 -2.72473,5.73634 0.21232,-0.0549 1.04928,-0.60925 1.85992,-1.23194 1.66679,-1.28034 3.98031,-2.52668 8.40189,-4.52626 4.91961,-2.22479 7.09853,-3.51755 9.29241,-5.51325 1.45416,-1.32278 2.18616,-2.18121 2.84799,-3.33988 0.48992,-0.85772 0.96387,-1.55605 1.0532,-1.55184 0.28372,0.0134 -0.0367,1.59847 -0.61408,3.03774 -1.27152,3.16965 -4.0785,5.63218 -10.78836,9.46446 -1.98446,1.13342 -4.23557,2.55154 -5.00244,3.15139 -1.39433,1.09062 -1.39433,1.09062 0.25042,0.14621 0.90461,-0.51942 3.9435,-2.22171 6.75309,-3.78286 4.27417,-2.37494 5.42983,-3.12712 7.07708,-4.60617 1.44703,-1.29925 2.09067,-2.04038 2.42886,-2.79663 0.25306,-0.5659 0.53781,-1.02525 0.63276,-1.02078 0.29228,0.0138 -0.58435,2.84052 -1.33843,4.31589 -0.79075,1.5471 -3.51774,5.31356 -4.48332,6.19226 -0.84394,0.768 -0.48633,0.73788 3.40094,-0.28646 4.29706,-1.13232 5.85017,-1.8982 7.59538,-3.7455 0.98431,-1.0419 1.37671,-1.33991 1.47552,-1.12068 0.19024,0.42204 -0.98103,2.14555 -2.29177,3.37231 -0.61098,0.57183 -1.03073,1.12775 -0.93278,1.23539 0.10031,0.11022 0.7293,-0.30595 1.4404,-0.95306 1.52099,-1.38413 2.6732,-2.0773 7.1779,-4.31817 4.29599,-2.13705 6.1102,-3.66129 7.58251,-6.37054 0.52224,-0.961 1.01547,-1.67481 1.09606,-1.58625 0.27691,0.30429 0.0367,2.48591 -0.36956,3.35631 -0.71395,1.52961 -1.88716,2.72367 -4.99423,5.08298 -2.44208,1.85435 -3.2874,2.6222 -4.34467,3.94698 -0.72213,0.90445 -1.37235,1.81811 -1.44493,2.03034 -0.0726,0.21224 1.09194,-0.63089 2.58782,-1.87364 3.13964,-2.60832 5.18302,-3.72845 8.79534,-4.82137 2.18064,-0.65976 2.56304,-0.86844 4.47678,-2.44299 1.15088,-0.94687 2.11131,-1.62081 2.13433,-1.4976 0.023,0.12321 -0.26725,0.71764 -0.64506,1.32095 -0.68693,1.09693 -0.68693,1.09693 0.52062,0.6805 0.66415,-0.22904 2.86612,-1.23889 4.89328,-2.2441 2.02716,-1.00522 3.80454,-1.76111 3.94974,-1.67975 0.42931,0.24054 -0.17977,1.50268 -3.1344,6.49518 -6.01463,10.16304 -12.65628,18.47463 -20.4026,25.53247 -4.03057,3.67197 -4.70874,4.20758 -6.52187,5.1469 -4.93299,2.55575 -8.81236,2.75928 -18.66743,0.97935 -3.28781,-0.59381 -7.63144,-0.94154 -10.78547,-0.86342 -2.5117,0.0622 -2.38058,0.10632 3.25715,1.09617 9.7549,1.71272 9.01166,1.54579 6.62118,1.48712 -1.15794,-0.0284 -4.1367,-0.24706 -6.61948,-0.48587 -2.48277,-0.23881 -4.87993,-0.37582 -5.32701,-0.30445 -0.75364,0.1203 -0.69907,0.15396 0.74896,0.46208 0.85899,0.18278 2.84173,0.69339 4.40608,1.13469 3.60429,1.01674 6.76289,1.52967 10.68881,1.73578 2.99059,0.157 3.08779,0.18361 2.7936,0.76482 -0.47882,0.94603 -2.09559,1.96476 -4.57989,2.88579 -4.19273,1.55443 -7.73526,1.73878 -15.03369,0.78232 -2.28456,-0.29939 -4.9005,-0.59221 -5.81319,-0.6507 -1.65944,-0.10637 -1.65944,-0.10637 0.0677,0.28949 7.93563,1.81889 13.18317,2.28278 18.20346,1.6092 3.52348,-0.47276 3.52348,-0.47276 3.04308,0.30525 -0.64482,1.04426 -5.32659,4.30351 -8.24786,5.74179 -2.47164,1.21691 -7.12851,2.70767 -9.45539,3.02685 -2.26907,0.31126 -4.16997,0.24999 -9.44462,-0.3044 -2.61664,-0.27502 -5.09428,-0.51555 -5.50589,-0.53449 -0.74836,-0.0344 -0.74836,-0.0344 0.14088,0.22954 1.99912,0.59346 5.15667,1.19504 7.80135,1.48635 3.48585,0.38395 5.8671,0.74404 6.01818,0.91005 0.24032,0.26409 -0.62854,0.76288 -2.11483,1.21407 -2.18619,0.66367 -4.24343,1.96368 -5.29314,3.34484 -1.02141,1.34392 -3.22914,3.05648 -4.78166,3.70908 -0.6253,0.26286 -1.94415,1.14321 -2.93078,1.95633 -5.11996,4.21954 -11.85768,5.08869 -24.262356,3.12982 -4.63732,-0.7323 -9.51201,-1.18171 -9.81609,-0.90499 -0.10127,0.0922 0.2055,0.25569 0.68172,0.3634 0.47622,0.10771 3.54178,1.05632 6.81235,2.10801 6.70475,2.15599 8.61339,2.56716 12.90514,2.77998 2.933306,0.14544 4.768936,-0.25124 5.892086,-1.27332 0.19607,-0.17844 0.4273,-0.24664 0.51381,-0.15158 0.24617,0.27052 -0.38856,1.10098 -1.878,2.4571 -3.12027,2.84086 -7.112986,4.00465 -13.230526,3.85617 -2.90734,-0.0706 -2.90734,-0.0706 -4.40081,1.28765 -1.26653,1.15183 -1.77442,1.44384 -3.34251,1.92176 -2.52372,0.76917 -6.23357,0.66049 -11.376641,-0.33329 -2.318461,-0.44799 -4.82848,-0.82005 -5.577812,-0.82679 -1.362409,-0.0123 -1.362409,-0.0123 -0.237958,0.21655 0.618446,0.12585 2.720594,0.70808 4.671433,1.29386 3.905769,1.17279 5.886908,1.56561 7.815328,1.54965 1.43513,-0.0119 1.36136,0.35327 -0.0992,0.49084 -1.99844,0.18824 -3.487763,0.0584 -7.177702,-0.62554 -2.097106,-0.38873 -3.923614,-0.6861 -4.058894,-0.66081 -0.135314,0.0252 0.631082,0.38788 1.70302,0.80578 1.741406,0.67889 2.102728,0.92818 3.392346,2.3406 1.156068,1.26592 1.520645,1.84882 1.831479,2.92685 0.495064,1.71695 0.212091,2.00937 -0.456231,0.47143 -0.817975,-1.88238 -2.847705,-3.68751 -5.016648,-4.46153 -1.695361,-0.60502 -5.895147,-0.9196 -7.357108,-0.55109 -0.542113,0.13665 -0.409671,0.20708 0.791969,0.42116 2.459666,0.43818 2.456264,0.4751 -0.03985,0.43266 -3.571189,-0.0607 -6.453832,1.05856 -11.444031,4.44347 -2.775168,1.88242 -5.178913,4.3195 -8.83558,8.95808 -3.961148,5.02482 -7.383117,11.85075 -9.740158,19.4291 -0.458627,1.47455 -0.957067,2.79313 -1.107649,2.93016 -0.405492,0.36901 -1.117435,0.26555 -1.566218,-0.22761 -0.309051,-0.33961 -0.179467,-1.29178 0.593375,-4.36013 z m 41.485443,-36.76642 c 7.578755,1.63208 11.319745,1.49587 14.037455,-0.51109 1.03249,-0.76248 1.1512,-0.9166 0.76048,-0.98738 -10.38926,-1.88199 -15.043006,-2.07535 -19.303423,-0.80206 -3.207456,0.9586 -3.378658,1.11891 -1.363266,1.27657 0.962293,0.0753 3.603226,0.53606 5.868727,1.02393 z M 56.356617,184.23331 c 0.376539,-1.24342 0.806809,-4.9517 0.735021,-6.33488 -0.08714,-1.67909 -0.955992,-5.99612 -1.278005,-6.34997 -0.09956,-0.10941 0.03046,1.21094 0.288954,2.93411 0.278829,1.85869 0.392587,4.51873 0.279678,6.53982 -0.201133,3.60024 -0.202688,3.79553 -0.02565,3.21092 z m 25.676939,7.0873 c 3.86733,1.24492 7.1086,1.89272 9.69937,1.93852 2.15954,0.0382 5.47651,-0.3769 6.5934,-0.82511 0.63413,-0.25446 0.5507,-0.28287 -0.62619,-0.21317 -2.33781,0.13844 -4.8867,-0.12928 -10.91508,-1.14644 -5.68034,-0.95844 -10.14487,-1.47997 -8.67446,-1.01331 0.40076,0.12719 2.16609,0.69398 3.92296,1.25951 z m 12.14143,-9.82311 c 8.677084,2.48926 12.847644,2.73453 17.360884,1.02099 0.75216,-0.28557 1.33555,-0.55442 1.2964,-0.59744 -0.0392,-0.043 -0.79083,0.0597 -1.67043,0.22823 -2.58093,0.49452 -8.71728,0.0192 -14.838854,-1.14931 -5.74094,-1.09588 -8.65453,-1.52432 -7.57349,-1.11364 0.32361,0.12293 2.76508,0.84796 5.42549,1.61117 z m -19.32728,-23.1119 c 0.8503,-2.22525 0.94409,-5.23989 0.28243,-9.07757 -0.15994,-0.92767 -0.15994,-0.92767 -0.41699,0.35919 -0.141374,0.70778 -0.365833,1.87793 -0.498793,2.60035 -0.285525,1.55129 -0.416775,7.72936 -0.164462,7.74125 0.09592,0.005 0.454933,-0.72594 0.797805,-1.62323 z m 3.85021,0.12735 c 0.15982,-0.50089 0.37152,-1.68346 0.47045,-2.62793 0.0989,-0.94447 0.22846,-1.6638 0.28786,-1.59853 0.0594,0.0653 0.34479,0.90127 0.63421,1.85776 0.28941,0.9565 0.58378,1.74179 0.65418,1.74511 0.38407,0.0181 0.19864,-4.05854 -0.26627,-5.85394 -0.50151,-1.93666 -0.67934,-2.26396 -2.38315,-4.38617 -1.01265,-1.26135 -1.96231,-2.55673 -2.11034,-2.87866 -0.23566,-0.5125 -0.29882,-0.38407 -0.50759,1.03226 -0.20442,1.38677 -0.0597,2.22059 1.01419,5.84374 0.68896,2.32439 1.3843,4.99177 1.54522,5.92748 0.16092,0.93573 0.31015,1.73468 0.33162,1.77546 0.0214,0.0408 0.1698,-0.33568 0.32962,-0.83658 z m 5.13838,3.10763 c 1.35151,-3.05921 0.95432,-6.26351 -1.11835,-9.02203 -1.03766,-1.38103 -1.03766,-1.38103 -0.40915,0.0343 1.08533,2.44404 1.40063,4.41118 1.15449,7.2029 -0.12963,1.47043 -0.32194,2.75197 -0.42733,2.84788 -0.10539,0.0959 -0.0935,0.17902 0.0265,0.18466 0.11993,0.006 0.46822,-0.55576 0.77385,-1.24767 z M 100.8944,144.2856 c 0.0395,-0.0359 -0.011,-0.59368 -0.11221,-1.2394 -0.25992,-1.65792 -1.362514,-4.48167 -2.800924,-7.17318 -0.67729,-1.26732 -1.34637,-2.52161 -1.48682,-2.7873 -0.85742,-1.62181 0.40506,1.83573 2.08509,5.71046 1.08481,2.50195 2.015924,4.75085 2.069144,4.99756 0.11065,0.51303 0.1456,0.58297 0.24572,0.49186 z m 8.40197,-1.72837 c 0.44066,-0.86709 1.25857,-2.66602 1.81758,-3.99764 1.53223,-3.64995 3.58781,-7.95753 4.55328,-9.54165 0.84618,-1.38839 0.84747,-1.40077 0.075,-0.72283 -1.41672,1.24328 -3.49648,4.6617 -4.59378,7.55055 -1.08371,2.85303 -2.81694,8.10821 -2.71218,8.22333 0.0324,0.0356 0.41947,-0.64468 0.86014,-1.51176 z m 7.08353,-1.81565 c 1.46475,-2.0504 3.56014,-5.39075 6.25217,-9.96681 2.55853,-4.3491 3.48736,-5.83474 4.73482,-7.57314 1.02518,-1.42867 1.02518,-1.42867 -0.94551,0.53345 -2.71799,2.70616 -5.71324,7.24497 -8.97364,13.59808 -1.44449,2.81466 -2.55287,5.12103 -2.46306,5.12527 0.0898,0.004 0.71762,-0.76839 1.39522,-1.71685 z m 6.29497,-2.32569 c 0.79707,-1.35496 2.91347,-5.30944 4.70311,-8.78774 1.78963,-3.47828 3.7915,-7.16118 4.4486,-8.18419 0.65711,-1.02302 1.14512,-1.86236 1.08448,-1.86522 -0.0606,-0.003 -0.90965,0.95732 -1.88663,2.13379 -2.08037,2.50503 -3.43685,4.61232 -4.98361,7.742 -1.53277,3.10141 -5.14353,11.40947 -4.96237,11.418 0.0809,0.004 0.79935,-1.10167 1.59642,-2.45664 z m 23.49095,11.79744 c 6.0661,0.93619 9.44574,1.00128 12.21619,0.2353 2.64067,-0.7301 4.25817,-1.59011 6.65732,-3.53968 1.83125,-1.4881 1.88962,-1.55936 0.93097,-1.1367 -3.17357,1.39919 -8.21838,2.08685 -14.79721,2.01699 -3.81097,-0.0405 -6.91654,0.1692 -10.95359,0.73949 -4.7373,0.66921 -4.73541,0.66837 -1.78024,0.78851 1.43385,0.0583 4.9108,0.46154 7.72656,0.89609 z m 13.3861,-4.23065 c 4.69628,-0.65125 9.88738,-2.57749 10.79083,-4.00409 0.38723,-0.61147 0.24975,-0.58996 -1.72235,0.26946 -3.83652,1.67192 -8.64221,2.7144 -17.13898,3.7179 -1.28147,0.15134 -0.91242,0.21406 1.78653,0.30359 1.87091,0.0621 4.69869,-0.067 6.28397,-0.28686 z"
       id="path1" /></g></svg>
